<?xml version="1.0" encoding="UTF-8"?>
<svg id="Layer_2" data-name="Layer 2" xmlns="http://www.w3.org/2000/svg" viewBox="0 0 640.33 130.75">
  <defs>
    <style>
      .cls-1 {
        fill: #172e40;
      }

      .cls-2 {
        fill: #c25747;
      }

      .cls-3 {
        fill: #f0872b;
      }
    </style>
  </defs>
  <g id="Layer_1-2" data-name="Layer 1">
    <g>
      <g>
        <g>
          <path class="cls-2" d="M94.75,17.99h-9.4c-31.14,0-56.38,25.24-56.38,56.38h46.99c0-2.26.75-4.35,2.01-6.03l16.78-50.35Z"/>
          <polygon class="cls-3" points="77.97 68.34 94.75 17.99 94.75 17.99 77.97 68.34 77.97 68.34"/>
          <circle class="cls-3" cx="102.97" cy="6.47" r="6.47"/>
        </g>
        <path class="cls-3" d="M28.97,74.37c0,2.26-.75,4.35-2.01,6.03,0,0,0,0,0,0-1.84,2.47-4.78,4.08-8.1,4.08h-3.44L0,130.75h19.58c31.14,0,56.38-25.24,56.38-56.38H28.97Z"/>
      </g>
      <path class="cls-3" d="M89.51,64.26l15.42-46.27h-10.18l-16.78,50.35c1.84-2.47,4.78-4.08,8.1-4.08h0s3.44,0,3.44,0Z"/>
      <g>
        <path class="cls-1" d="M122.47,74.52c0-16.91,12.4-28.29,26.85-28.29,16.4,0,26.34,11.89,26.34,27.88v3.38h-40.69c.1,9.02,5.95,14.76,14.76,14.76,5.95,0,11.58-3.08,13.53-9.02l11.07,2.66c-3.48,11.17-13.32,16.71-24.49,16.71-16.4,0-27.36-11.68-27.36-28.08ZM163.37,68.68c-.62-7.28-6.66-11.89-14.04-11.89s-13.53,5.43-14.25,11.89h28.29Z"/>
        <path class="cls-1" d="M185.72,47.57h12.09v6.15h.92c2.36-4.1,7.28-7.48,14.45-7.48,11.79,0,19.27,8.81,19.27,19.88v35.15h-12.09v-32.28c0-6.66-4.72-11.27-10.86-11.27-6.66,0-11.68,5.12-11.68,11.89v31.67h-12.09v-53.7Z"/>
        <path class="cls-1" d="M254.89,113.68h23.78c3.69,0,5.23-1.85,5.23-5.74v-13.12h-.92c-2.36,3.38-6.97,7.79-16.09,7.79-14.35,0-25.21-11.89-25.21-28.29s10.66-28.08,25.11-28.08c9.74,0,14.14,5.43,16.4,8.1h.92v-6.76h11.89v61.19c0,11.27-7.17,16.09-17.22,16.09h-23.88v-11.17ZM284.2,74.42c0-9.74-6.25-16.81-15.07-16.81s-15.17,6.66-15.17,16.81,6.56,16.81,15.07,16.81,15.17-6.76,15.17-16.81Z"/>
        <path class="cls-1" d="M306.49,86.52l7.38-1.84c.61,7.17,5.64,10.86,13.73,10.86s12.4-3.89,12.4-9.33c0-14.96-31.87-3.59-31.87-24.7,0-9.02,8.1-14.86,19.27-14.86,9.22,0,18.14,5.33,19.37,14.96l-7.07,2.05c-.72-6.25-5.84-10.04-12.81-10.04s-10.97,3.28-10.97,7.89c0,13.53,31.98,2.26,31.98,24.29,0,10.04-8.3,16.81-20.7,16.81s-19.47-6.56-20.7-16.09Z"/>
        <path class="cls-1" d="M362.9,86.11v-31.26h-10.04v-6.87h10.56v-15.48h7.58v15.48h16.4v6.87h-16.4v31.16c0,5.74,2.36,8.2,7.99,8.2h7.69v7.07h-7.58c-9.74,0-16.19-4.41-16.19-15.17Z"/>
        <path class="cls-1" d="M392.79,74.73c0-16.4,10.25-28.08,25.42-28.08,11.07,0,16.6,7.17,18.14,9.94h.61v-8.61h8.2v43.66c0,1.64,1.02,2.46,2.66,2.46h2.46v7.17h-5.23c-4.41,0-7.69-3.28-7.79-7.89v-.51h-.61c-1.33,2.15-6.25,9.74-17.83,9.74-15.27,0-26.03-11.58-26.03-27.88ZM437.27,74.83c0-13.22-8.2-20.81-18.14-20.81-10.45,0-18.04,8.61-18.04,20.81s7.89,20.5,18.14,20.5c11.17,0,18.04-9.33,18.04-20.5Z"/>
        <path class="cls-1" d="M465.26,54.85h-10.04v-6.87h10.04v-8.4c0-10.76,6.46-15.17,16.19-15.17h7.07v7.07h-7.17c-5.64,0-7.99,2.46-7.99,8.2v8.3h15.58v6.87h-15.58v46.43h-8.1v-46.43Z"/>
        <path class="cls-1" d="M505.96,54.85h-10.04v-6.87h10.04v-8.4c0-10.76,6.46-15.17,16.19-15.17h7.07v7.07h-7.17c-5.64,0-7.99,2.46-7.99,8.2v8.3h15.58v6.87h-15.58v46.43h-8.1v-46.43Z"/>
        <path class="cls-1" d="M530.71,66.63h26.13v7.59h-26.13v-7.59Z"/>
        <path class="cls-1" d="M571.43,54.85h-10.04v-6.87h18.14v53.29h-8.1v-46.43ZM569.58,32.4c0-3.28,2.46-5.84,5.84-5.84s5.94,2.56,5.94,5.84-2.46,5.95-5.94,5.95-5.84-2.56-5.84-5.95Z"/>
        <path class="cls-1" d="M595.44,47.98h8.1v7.79h.61c2.26-4.82,7.99-9.12,16.3-9.12,12.4,0,19.88,9.33,19.88,21.11v33.51h-8.1v-33c0-8.51-6.25-14.04-13.73-14.04-8.4,0-14.96,6.46-14.96,15.27v31.77h-8.1v-53.29Z"/>
      </g>
    </g>
  </g>
</svg>